{
  "accessors": [
    {
      "bufferView": 2,
      "componentType": 5126,
      "count": 24,
      "max": [
        1.0,
        1.0,
        1.0
      ],
      "min": [
        -1.0,
        -1.0,
        -1.0
      ],
      "type": "VEC3"
    },
    {
      "bufferView": 2,
      "byteOffset": 288,
      "componentType": 5126,
      "count": 24,
      "max": [
        1.0,
        1.0,
        1.0
      ],
      "min": [
        -1.0,
        -1.0,
        -1.0
      ],
      "type": "VEC3"
    },
    {
      "bufferView": 1,
      "componentType": 5126,
      "count": 24,
      "max": [
        0.875,
        1.0
      ],
      "min": [
        0.125,
        0.0
      ],
      "type": "VEC2"
    },
    {
      "bufferView": 0,
      "componentType": 5125,
      "count": 36,
      "type": "SCALAR"
    },
    {
      "bufferView": 2,
      "byteOffset": 576,
      "componentType": 5126,
      "count": 29282,
      "max": [
        15.508927345275879,
        10.896890640258789,
        15.522839546203613
      ],
      "min": [
        -15.491042137145996,
        -11.920713424682617,
        -11.674948692321777
      ],
      "type": "VEC3"
    },
    {
      "bufferView": 2,
      "byteOffset": 351960,
      "componentType": 5126,
      "count": 29282,
      "max": [
        1.0,
        1.0,
        1.0
      ],
      "min": [
        -1.0,
        -1.0,
        -1.0
      ],
      "type": "VEC3"
    },
    {
      "bufferView": 1,
      "byteOffset": 192,
      "componentType": 5126,
      "count": 29282,
      "max": [
        15.99998664855957,
        11.305848121643066
      ],
      "min": [
        -14.999983787536621,
        -12.89194107055664
      ],
      "type": "VEC2"
    },
    {
      "bufferView": 0,
      "byteOffset": 144,
      "componentType": 5125,
      "count": 57519,
      "type": "SCALAR"
    },
    {
      "bufferView": 2,
      "byteOffset": 703344,
      "componentType": 5126,
      "count": 4,
      "max": [
        15.453225135803223,
        2.3802566528320313,
        -8.564459800720215
      ],
      "min": [
        -7.638551712036133,
        -4.331061840057373,
        -8.564459800720215
      ],
      "type": "VEC3"
    },
    {
      "bufferView": 2,
      "byteOffset": 703392,
      "componentType": 5126,
      "count": 4,
      "max": [
        0.0,
        0.0,
        1.0
      ],
      "min": [
        0.0,
        0.0,
        1.0
      ],
      "type": "VEC3"
    },
    {
      "bufferView": 1,
      "byteOffset": 234448,
      "componentType": 5126,
      "count": 4,
      "max": [
        0.875,
        0.75
      ],
      "min": [
        0.625,
        0.5
      ],
      "type": "VEC2"
    },
    {
      "bufferView": 0,
      "byteOffset": 230220,
      "componentType": 5125,
      "count": 6,
      "type": "SCALAR"
    },
    {
      "bufferView": 2,
      "byteOffset": 703440,
      "componentType": 5126,
      "count": 19904,
      "max": [
        15.03392505645752,
        10.368989944458008,
        14.022841453552246
      ],
      "min": [
        -15.016043663024902,
        -9.830986022949219,
        -10.573779106140137
      ],
      "type": "VEC3"
    },
    {
      "bufferView": 2,
      "byteOffset": 942288,
      "componentType": 5126,
      "count": 19904,
      "max": [
        1.0,
        1.0,
        1.0
      ],
      "min": [
        -1.0,
        -1.0,
        -1.0
      ],
      "type": "VEC3"
    },
    {
      "bufferView": 1,
      "byteOffset": 234480,
      "componentType": 5126,
      "count": 19904,
      "max": [
        15.683143615722656,
        10.621649742126465
      ],
      "min": [
        -14.499890327453613,
        -9.599989891052246
      ],
      "type": "VEC2"
    },
    {
      "bufferView": 0,
      "byteOffset": 230244,
      "componentType": 5125,
      "count": 36774,
      "type": "SCALAR"
    },
    {
      "bufferView": 2,
      "byteOffset": 1181136,
      "componentType": 5126,
      "count": 65532,
      "max": [
        14.858929634094238,
        10.317106246948242,
        12.922842979431152
      ],
      "min": [
        -14.841049194335938,
        -9.77910041809082,
        -11.07494831085205
      ],
      "type": "VEC3"
    },
    {
      "bufferView": 2,
      "byteOffset": 1967520,
      "componentType": 5126,
      "count": 65532,
      "max": [
        1.0,
        1.0,
        1.0
      ],
      "min": [
        -1.0,
        -1.0,
        -1.0
      ],
      "type": "VEC3"
    },
    {
      "bufferView": 1,
      "byteOffset": 393712,
      "componentType": 5126,
      "count": 65532,
      "max": [
        10.501594543457031,
        12.559514999389648
      ],
      "min": [
        -9.7095308303833,
        -11.438276290893555
      ],
      "type": "VEC2"
    },
    {
      "bufferView": 0,
      "byteOffset": 377340,
      "componentType": 5125,
      "count": 163098,
      "type": "SCALAR"
    },
    {
      "bufferView": 2,
      "byteOffset": 2753904,
      "componentType": 5126,
      "count": 65532,
      "max": [
        14.858929634094238,
        10.27094841003418,
        12.922842979431152
      ],
      "min": [
        -14.841049194335938,
        -9.73294448852539,
        -11.07494831085205
      ],
      "type": "VEC3"
    },
    {
      "bufferView": 2,
      "byteOffset": 3540288,
      "componentType": 5126,
      "count": 65532,
      "max": [
        1.0,
        1.0,
        1.0
      ],
      "min": [
        -1.0,
        -1.0,
        -1.0
      ],
      "type": "VEC3"
    },
    {
      "bufferView": 1,
      "byteOffset": 917968,
      "componentType": 5126,
      "count": 65532,
      "max": [
        15.3560209274292,
        12.559514999389648
      ],
      "min": [
        -14.343958854675293,
        -11.438276290893555
      ],
      "type": "VEC2"
    },
    {
      "bufferView": 0,
      "byteOffset": 1029732,
      "componentType": 5125,
      "count": 145995,
      "type": "SCALAR"
    },
    {
      "bufferView": 2,
      "byteOffset": 4326672,
      "componentType": 5126,
      "count": 65532,
      "max": [
        10.010884284973145,
        10.317106246948242,
        8.467026710510254
      ],
      "min": [
        -9.993001937866211,
        -9.77910041809082,
        -4.874953269958496
      ],
      "type": "VEC3"
    },
    {
      "bufferView": 2,
      "byteOffset": 5113056,
      "componentType": 5126,
      "count": 65532,
      "max": [
        1.0,
        1.0,
        1.0
      ],
      "min": [
        -1.0,
        -1.0,
        -1.0
      ],
      "type": "VEC3"
    },
    {
      "bufferView": 1,
      "byteOffset": 1442224,
      "componentType": 5126,
      "count": 65532,
      "max": [
        10.501594543457031,
        10.386676788330078
      ],
      "min": [
        -9.699170112609863,
        -9.7095308303833
      ],
      "type": "VEC2"
    },
    {
      "bufferView": 0,
      "byteOffset": 1613712,
      "componentType": 5125,
      "count": 131649,
      "type": "SCALAR"
    },
    {
      "bufferView": 2,
      "byteOffset": 5899440,
      "componentType": 5126,
      "count": 65532,
      "max": [
        10.010884284973145,
        10.317106246948242,
        8.407025337219238
      ],
      "min": [
        -9.993001937866211,
        -9.77910041809082,
        -11.07494831085205
      ],
      "type": "VEC3"
    },
    {
      "bufferView": 2,
      "byteOffset": 6685824,
      "componentType": 5126,
      "count": 65532,
      "max": [
        1.0,
        1.0,
        1.0
      ],
      "min": [
        -1.0,
        -1.0,
        -1.0
      ],
      "type": "VEC3"
    },
    {
      "bufferView": 1,
      "byteOffset": 1966480,
      "componentType": 5126,
      "count": 65532,
      "max": [
        11.305657386779785,
        11.305657386779785
      ],
      "min": [
        -9.699170112609863,
        -10.877861976623535
      ],
      "type": "VEC2"
    },
    {
      "bufferView": 0,
      "byteOffset": 2140308,
      "componentType": 5125,
      "count": 131430,
      "type": "SCALAR"
    },
    {
      "bufferView": 2,
      "byteOffset": 7472208,
      "componentType": 5126,
      "count": 33028,
      "max": [
        10.010884284973145,
        10.317106246948242,
        5.367030143737793
      ],
      "min": [
        -9.993001937866211,
        -9.77910041809082,
        -7.97495174407959
      ],
      "type": "VEC3"
    },
    {
      "bufferView": 2,
      "byteOffset": 7868544,
      "componentType": 5126,
      "count": 33028,
      "max": [
        1.0,
        1.0,
        1.0
      ],
      "min": [
        -1.0,
        -1.0,
        -1.0
      ],
      "type": "VEC3"
    },
    {
      "bufferView": 1,
      "byteOffset": 2490736,
      "componentType": 5126,
      "count": 33028,
      "max": [
        10.5015869140625,
        10.386676788330078
      ],
      "min": [
        -9.699170112609863,
        -9.7095308303833
      ],
      "type": "VEC2"
    },
    {
      "bufferView": 0,
      "byteOffset": 2666028,
      "componentType": 5125,
      "count": 67488,
      "type": "SCALAR"
    },
    {
      "bufferView": 2,
      "byteOffset": 8264880,
      "componentType": 5126,
      "count": 1718,
      "max": [
        10.008885383605957,
        10.315107345581055,
        8.354960441589355
      ],
      "min": [
        -9.99100112915039,
        -9.777101516723633,
        -11.07294750213623
      ],
      "type": "VEC3"
    },
    {
      "bufferView": 2,
      "byteOffset": 8285496,
      "componentType": 5126,
      "count": 1718,
      "max": [
        1.0,
        1.0,
        1.0
      ],
      "min": [
        -1.0,
        -1.0,
        -1.0
      ],
      "type": "VEC3"
    },
    {
      "bufferView": 1,
      "byteOffset": 2754960,
      "componentType": 5126,
      "count": 1718,
      "max": [
        11.543652534484863,
        11.543652534484863
      ],
      "min": [
        -9.664596557617188,
        -10.6844482421875
      ],
      "type": "VEC2"
    },
    {
      "bufferView": 0,
      "byteOffset": 2935980,
      "componentType": 5125,
      "count": 2712,
      "type": "SCALAR"
    },
    {
      "bufferView": 2,
      "byteOffset": 8306112,
      "componentType": 5126,
      "count": 8688,
      "max": [
        14.834053993225098,
        10.094118118286133,
        12.872841835021973
      ],
      "min": [
        -14.816173553466797,
        -9.55611801147461,
        -11.024949073791504
      ],
      "type": "VEC3"
    },
    {
      "bufferView": 2,
      "byteOffset": 8410368,
      "componentType": 5126,
      "count": 8688,
      "max": [
        1.0,
        1.0,
        1.0
      ],
      "min": [
        -1.0,
        -1.0,
        -1.0
      ],
      "type": "VEC3"
    },
    {
      "bufferView": 1,
      "byteOffset": 2768704,
      "componentType": 5126,
      "count": 8688,
      "max": [
        15.32498550415039,
        12.63428020477295
      ],
      "min": [
        -14.325244903564453,
        -11.263510704040527
      ],
      "type": "VEC2"
    },
    {
      "bufferView": 0,
      "byteOffset": 2946828,
      "componentType": 5125,
      "count": 13032,
      "type": "SCALAR"
    },
    {
      "bufferView": 2,
      "byteOffset": 8514624,
      "componentType": 5126,
      "count": 5098,
      "max": [
        15.208928108215332,
        10.468992233276367,
        7.4770307540893555
      ],
      "min": [
        -15.191045761108398,
        -12.34223747253418,
        -11.675532341003418
      ],
      "type": "VEC3"
    },
    {
      "bufferView": 2,
      "byteOffset": 8575800,
      "componentType": 5126,
      "count": 5098,
      "max": [
        1.0,
        1.0,
        1.0
      ],
      "min": [
        -1.0,
        -1.0,
        -1.0
      ],
      "type": "VEC3"
    },
    {
      "bufferView": 1,
      "byteOffset": 2838208,
      "componentType": 5126,
      "count": 5098,
      "max": [
        20.87029457092285,
        20.87029457092285
      ],
      "min": [
        -14.700089454650879,
        -9.519996643066406
      ],
      "type": "VEC2"
    },
    {
      "bufferView": 0,
      "byteOffset": 2998956,
      "componentType": 5125,
      "count": 8613,
      "type": "SCALAR"
    },
    {
      "bufferView": 2,
      "byteOffset": 8636976,
      "componentType": 5126,
      "count": 1142,
      "max": [
        15.058926582336426,
        10.288995742797852,
        10.375033378601074
      ],
      "min": [
        -15.041044235229492,
        -9.750990867614746,
        -11.274950981140137
      ],
      "type": "VEC3"
    },
    {
      "bufferView": 2,
      "byteOffset": 8650680,
      "componentType": 5126,
      "count": 1142,
      "max": [
        1.0,
        1.0,
        1.0
      ],
      "min": [
        -1.0,
        -1.0,
        -1.0
      ],
      "type": "VEC3"
    },
    {
      "bufferView": 1,
      "byteOffset": 2878992,
      "componentType": 5126,
      "count": 1142,
      "max": [
        15.549988746643066,
        10.519993782043457
      ],
      "min": [
        -14.5499849319458,
        -9.519993782043457
      ],
      "type": "VEC2"
    },
    {
      "bufferView": 0,
      "byteOffset": 3033408,
      "componentType": 5125,
      "count": 1878,
      "type": "SCALAR"
    }
  ],
  "asset": {
    "extras": {
      "author": "ahmadgilankbadawi (https://sketchfab.com/ahmadgilankbadawi)",
      "license": "CC-BY-4.0 (http://creativecommons.org/licenses/by/4.0/)",
      "source": "https://sketchfab.com/3d-models/3d-models-buildingapartementhotelhome-ff694467d5b34172bfc0d2a8809da898",
      "title": "3D Models Building|Apartement|Hotel|Home"
    },
    "generator": "Sketchfab-16.59.0",
    "version": "2.0"
  },
  "bufferViews": [
    {
      "buffer": 0,
      "byteLength": 3040920,
      "name": "floatBufferViews",
      "target": 34963
    },
    {
      "buffer": 0,
      "byteLength": 2888128,
      "byteOffset": 3040920,
      "byteStride": 8,
      "name": "floatBufferViews",
      "target": 34962
    },
    {
      "buffer": 0,
      "byteLength": 8664384,
      "byteOffset": 5929048,
      "byteStride": 12,
      "name": "floatBufferViews",
      "target": 34962
    }
  ],
  "buffers": [
    {
      "byteLength": 14593432,
      "uri": "scene.bin"
    }
  ],
  "extensionsUsed": [
    "KHR_materials_specular"
  ],
  "materials": [
    {
      "doubleSided": true,
      "extensions": {
        "KHR_materials_specular": {
          "specularColorFactor": [
            1.0,
            1.0,
            1.0
          ],
          "specularFactor": 0.4739062061903426
        }
      },
      "name": "BricksDragfacedRunning008_8K",
      "pbrMetallicRoughness": {
        "baseColorFactor": [
          0.8,
          0.8,
          0.8,
          1.0
        ],
        "metallicFactor": 0.0,
        "roughnessFactor": 0.8211145618000169
      }
    },
    {
      "doubleSided": true,
      "name": "Black.001",
      "pbrMetallicRoughness": {
        "baseColorFactor": [
          0.0578023,
          0.054478,
          0.054478,
          1.0
        ],
        "metallicFactor": 0.0,
        "roughnessFactor": 0.9883298470418013
      }
    },
    {
      "doubleSided": true,
      "name": "Material.003",
      "pbrMetallicRoughness": {
        "baseColorFactor": [
          0.239555,
          0.239555,
          0.239555,
          1.0
        ],
        "metallicFactor": 0.0,
        "roughnessFactor": 0.9464338735650037
      }
    },
    {
      "doubleSided": true,
      "name": "White",
      "pbrMetallicRoughness": {
        "baseColorFactor": [
          0.429225,
          0.429225,
          0.429225,
          1.0
        ],
        "metallicFactor": 0.0,
        "roughnessFactor": 0.8979125152125914
      }
    },
    {
      "doubleSided": true,
      "name": "aluminum2",
      "pbrMetallicRoughness": {
        "baseColorFactor": [
          0.129412,
          0.129412,
          0.113726,
          1.0
        ],
        "metallicFactor": 0.0
      }
    },
    {
      "doubleSided": true,
      "name": "glass.001",
      "pbrMetallicRoughness": {
        "baseColorFactor": [
          0.0,
          0.0,
          0.0,
          1.0
        ],
        "metallicFactor": 0.0
      }
    },
    {
      "doubleSided": true,
      "name": "Material.001",
      "pbrMetallicRoughness": {
        "baseColorFactor": [
          0.8,
          0.8,
          0.8,
          1.0
        ],
        "metallicFactor": 0.0,
        "roughnessFactor": 0.8040408205773457
      }
    },
    {
      "doubleSided": true,
      "name": "StoneTile",
      "pbrMetallicRoughness": {
        "baseColorFactor": [
          0.8,
          0.8,
          0.8,
          1.0
        ],
        "metallicFactor": 0.0,
        "roughnessFactor": 0.8211145618000169
      }
    },
    {
      "doubleSided": true,
      "name": "Black",
      "pbrMetallicRoughness": {
        "baseColorFactor": [
          0.239552,
          0.239552,
          0.239552,
          1.0
        ],
        "metallicFactor": 0.0,
        "roughnessFactor": 0.9684731838049204
      }
    }
  ],
  "meshes": [
    {
      "name": "Cube_BricksDragfacedRunning008_8K_0",
      "primitives": [
        {
          "attributes": {
            "NORMAL": 1,
            "POSITION": 0,
            "TEXCOORD_0": 2
          },
          "indices": 3,
          "material": 0,
          "mode": 4
        }
      ]
    },
    {
      "name": "Apartment Building.233__Black.001_0",
      "primitives": [
        {
          "attributes": {
            "NORMAL": 5,
            "POSITION": 4,
            "TEXCOORD_0": 6
          },
          "indices": 7,
          "material": 1,
          "mode": 4
        }
      ]
    },
    {
      "name": "Apartment Building.233_Material.003_0",
      "primitives": [
        {
          "attributes": {
            "NORMAL": 9,
            "POSITION": 8,
            "TEXCOORD_0": 10
          },
          "indices": 11,
          "material": 2,
          "mode": 4
        }
      ]
    },
    {
      "name": "Apartment Building.233__White_0",
      "primitives": [
        {
          "attributes": {
            "NORMAL": 13,
            "POSITION": 12,
            "TEXCOORD_0": 14
          },
          "indices": 15,
          "material": 3,
          "mode": 4
        }
      ]
    },
    {
      "name": "Apartment Building.233_aluminum2_0",
      "primitives": [
        {
          "attributes": {
            "NORMAL": 17,
            "POSITION": 16,
            "TEXCOORD_0": 18
          },
          "indices": 19,
          "material": 4,
          "mode": 4
        }
      ]
    },
    {
      "name": "Apartment Building.233_aluminum2_0",
      "primitives": [
        {
          "attributes": {
            "NORMAL": 21,
            "POSITION": 20,
            "TEXCOORD_0": 22
          },
          "indices": 23,
          "material": 4,
          "mode": 4
        }
      ]
    },
    {
      "name": "Apartment Building.233_aluminum2_0",
      "primitives": [
        {
          "attributes": {
            "NORMAL": 25,
            "POSITION": 24,
            "TEXCOORD_0": 26
          },
          "indices": 27,
          "material": 4,
          "mode": 4
        }
      ]
    },
    {
      "name": "Apartment Building.233_aluminum2_0",
      "primitives": [
        {
          "attributes": {
            "NORMAL": 29,
            "POSITION": 28,
            "TEXCOORD_0": 30
          },
          "indices": 31,
          "material": 4,
          "mode": 4
        }
      ]
    },
    {
      "name": "Apartment Building.233_aluminum2_0",
      "primitives": [
        {
          "attributes": {
            "NORMAL": 33,
            "POSITION": 32,
            "TEXCOORD_0": 34
          },
          "indices": 35,
          "material": 4,
          "mode": 4
        }
      ]
    },
    {
      "name": "Apartment Building.233_glass.001_0",
      "primitives": [
        {
          "attributes": {
            "NORMAL": 37,
            "POSITION": 36,
            "TEXCOORD_0": 38
          },
          "indices": 39,
          "material": 5,
          "mode": 4
        }
      ]
    },
    {
      "name": "Apartment Building.233_Material.001_0",
      "primitives": [
        {
          "attributes": {
            "NORMAL": 41,
            "POSITION": 40,
            "TEXCOORD_0": 42
          },
          "indices": 43,
          "material": 6,
          "mode": 4
        }
      ]
    },
    {
      "name": "Apartment Building.233_StoneTile_0",
      "primitives": [
        {
          "attributes": {
            "NORMAL": 45,
            "POSITION": 44,
            "TEXCOORD_0": 46
          },
          "indices": 47,
          "material": 7,
          "mode": 4
        }
      ]
    },
    {
      "name": "Apartment Building.233__Black_0",
      "primitives": [
        {
          "attributes": {
            "NORMAL": 49,
            "POSITION": 48,
            "TEXCOORD_0": 50
          },
          "indices": 51,
          "material": 8,
          "mode": 4
        }
      ]
    }
  ],
  "nodes": [
    {
      "children": [
        1
      ],
      "matrix": [
        1.0,
        0.0,
        0.0,
        0.0,
        0.0,
        2.220446049250313e-16,
        -1.0,
        0.0,
        0.0,
        1.0,
        2.220446049250313e-16,
        0.0,
        0.0,
        0.0,
        0.0,
        1.0
      ],
      "name": "Sketchfab_model"
    },
    {
      "children": [
        2
      ],
      "matrix": [
        0.009999999776482582,
        0.0,
        0.0,
        0.0,
        0.0,
        0.0,
        0.009999999776482582,
        0.0,
        0.0,
        -0.009999999776482582,
        0.0,
        0.0,
        0.0,
        0.0,
        0.0,
        1.0
      ],
      "name": "53afb5279c224be186f8f3b066571f3c.fbx"
    },
    {
      "children": [
        3,
        5
      ],
      "name": "RootNode"
    },
    {
      "children": [
        4
      ],
      "matrix": [
        5838.164550781183,
        -0.0008815383216098799,
        1.545349289376194e-19,
        -0.0,
        -1.436208226230054e-10,
        -0.0009511577389035863,
        -5838.164550781172,
        -0.0,
        -2.159327508395019e-06,
        -14.300580024718885,
        2.3298602196752446e-06,
        -0.0,
        58692.8828125,
        -1947.671142578125,
        -3413.5673828125,
        1.0
      ],
      "name": "Cube"
    },
    {
      "children": [
        6
      ],
      "matrix": [
        211.78152465820313,
        0.0,
        0.0,
        0.0,
        0.0,
        -4.856830620668828e-05,
        -298.1101379394492,
        0.0,
        0.0,
        371.914520263667,
        -6.059256631704447e-05,
        0.0,
        55606.046875,
        -1830.4727783203125,
        -354.13818359375,
        1.0
      ],
      "name": "Apartment Building.259"
    },
    {
      "children": [
        7,
        8,
        9,
        10,
        11,
        12,
        13,
        14,
        15,
        16
      ],
      "matrix": [
        0.9999999403953552,
        0.0,
        0.0,
        0.0,
        0.0,
        0.9999999403953552,
        2.646977960169689e-23,
        0.0,
        0.0,
        -2.6469781179418796e-23,
        1.0,
        0.0,
        15.19085693359375,
        9.83095645904541,
        11.67480754852295,
        1.0
      ],
      "name": "Apartment Building.233"
    },
    {
      "mesh": 1,
      "name": "Apartment Building.233__Black.001_0"
    },
    {
      "mesh": 2,
      "name": "Apartment Building.233_Material.003_0"
    },
    {
      "mesh": 3,
      "name": "Apartment Building.233__White_0"
    },
    {
      "mesh": 4,
      "name": "Apartment Building.233_aluminum2_0"
    },
    {
      "mesh": 5,
      "name": "Apartment Building.233_aluminum2_0"
    },
    {
      "mesh": 6,
      "name": "Apartment Building.233_aluminum2_0"
    },
    {
      "mesh": 7,
      "name": "Apartment Building.233_aluminum2_0"
    },
    {
      "mesh": 8,
      "name": "Apartment Building.233_aluminum2_0"
    },
    {
      "mesh": 9,
      "name": "Apartment Building.233_glass.001_0"
    },
    {
      "mesh": 11,
      "name": "Apartment Building.233_StoneTile_0"
    },
    {
      "mesh": 12,
      "name": "Apartment Building.233__Black_0"
    }
  ],
  "scene": 0,
  "scenes": [
    {
      "name": "Sketchfab_Scene",
      "nodes": [
        0
      ]
    }
  ]
}
