<svg version="1.1" viewBox="0.0 0.0 287.7716535433071 275.6666666666667" fill="none" stroke="none" stroke-linecap="square" stroke-miterlimit="10" xmlns:xlink="http://www.w3.org/1999/xlink" xmlns="http://www.w3.org/2000/svg"><clipPath id="p.0"><path d="m0 0l287.77167 0l0 275.66666l-287.77167 0l0 -275.66666z" clip-rule="nonzero"/></clipPath><g clip-path="url(#p.0)"><path fill="#000000" fill-opacity="0.0" d="m0 0l287.77167 0l0 275.66666l-287.77167 0z" fill-rule="evenodd"/><path fill="#000000" d="m0 0l0 2.9378666E-19c0 -0.0013249036 0.0010740466 -0.00239895 0.00239895 -0.00239895l287.8716 0.00239895c6.4086914E-4 0 0.0012512207 2.527458E-4 0.0016784668 7.026362E-4c4.5776367E-4 4.498904E-4 7.019043E-4 0.0010600728 7.019043E-4 0.0016963138l-0.002380371 275.7141c0 0.0013427734 -0.0010681152 0.0024108887 -0.0024108887 0.0024108887l-287.8716 -0.0024108887l4.132303E-19 0c-0.0013249036 0 -0.00239895 -0.0010681152 -0.00239895 -0.002380371z" fill-rule="evenodd"/><path fill="#dccf00" d="m239.93613 137.89285l-38.73999 13.776855l0 -27.553703zm-28.12445 -67.88444l-17.646576 37.138626l-19.483154 -19.483154zm-67.87555 -28.115559l13.776855 38.739994l-27.55371 0zm-67.884445 28.115559l37.138626 17.655472l-19.483154 19.483154zm-28.115555 67.88444l38.73999 -13.776848l0 27.553703zm28.115555 67.875565l17.655472 -37.129745l19.483154 19.483154zm67.884445 28.124435l-13.776855 -38.73999l27.55371 0zm67.87555 -28.124435l-37.12973 -17.646591l19.483154 -19.483154zm-115.87555 -67.875565l0 0c0 -26.509666 21.490334 -47.999992 48.0 -47.999992c26.509659 0 48.0 21.490326 48.0 47.999992c0 26.509674 -21.490341 48.0 -48.0 48.0c-26.509666 0 -48.0 -21.490326 -48.0 -48.0z" fill-rule="evenodd"/><path stroke="#000000" stroke-width="1.0" stroke-linejoin="round" stroke-linecap="butt" d="m239.93613 137.89285l-38.73999 13.776855l0 -27.553703zm-28.12445 -67.88444l-17.646576 37.138626l-19.483154 -19.483154zm-67.87555 -28.115559l13.776855 38.739994l-27.55371 0zm-67.884445 28.115559l37.138626 17.655472l-19.483154 19.483154zm-28.115555 67.88444l38.73999 -13.776848l0 27.553703zm28.115555 67.875565l17.655472 -37.129745l19.483154 19.483154zm67.884445 28.124435l-13.776855 -38.73999l27.55371 0zm67.87555 -28.124435l-37.12973 -17.646591l19.483154 -19.483154zm-115.87555 -67.875565l0 0c0 -26.509666 21.490334 -47.999992 48.0 -47.999992c26.509659 0 48.0 21.490326 48.0 47.999992c0 26.509674 -21.490341 48.0 -48.0 48.0c-26.509666 0 -48.0 -21.490326 -48.0 -48.0z" fill-rule="evenodd"/><path fill="#1c396a" d="m177.87396 171.82121l0 0c19.652206 -19.652206 20.445786 -50.744896 1.77388 -69.50155c-18.671906 -18.756653 -49.76117 -18.09716 -69.49389 1.4741592l33.782997 34.090378z" fill-rule="evenodd"/><path stroke="#000000" stroke-width="1.0" stroke-linejoin="round" stroke-linecap="butt" d="m177.87396 171.82121l0 0c19.652206 -19.652206 20.445786 -50.744896 1.77388 -69.50155c-18.671906 -18.756653 -49.76117 -18.09716 -69.49389 1.4741592l33.782997 34.090378z" fill-rule="evenodd"/><path fill="#1c396a" d="m130.5899 79.8373l12.960617 -37.54331l12.960632 37.54331z" fill-rule="evenodd"/><path stroke="#000000" stroke-width="1.0" stroke-linejoin="round" stroke-linecap="butt" d="m130.5899 79.8373l12.960617 -37.54331l12.960632 37.54331z" fill-rule="evenodd"/><path fill="#1c396a" d="m175.26315 88.02315l35.716537 -17.385826l-17.385834 35.71653z" fill-rule="evenodd"/><path stroke="#000000" stroke-width="1.0" stroke-linejoin="round" stroke-linecap="butt" d="m175.26315 88.02315l35.716537 -17.385826l-17.385834 35.71653z" fill-rule="evenodd"/><path fill="#1c396a" d="m201.27356 150.81801l37.448822 -12.960632l-37.448822 -12.960632z" fill-rule="evenodd"/><path stroke="#000000" stroke-width="1.0" stroke-linejoin="round" stroke-linecap="butt" d="m201.27356 150.81801l37.448822 -12.960632l-37.448822 -12.960632z" fill-rule="evenodd"/><path fill="#1c396a" d="m184.05432 178.4568l9.51181 -9.51181l18.330704 37.35434z" fill-rule="evenodd"/><path stroke="#000000" stroke-width="1.0" stroke-linejoin="round" stroke-linecap="butt" d="m184.05432 178.4568l9.51181 -9.51181l18.330704 37.35434z" fill-rule="evenodd"/><path fill="#1c396a" d="m103.2612 97.23408l9.291336 -9.291336l-37.133858 -18.48819z" fill-rule="evenodd"/><path stroke="#000000" stroke-width="1.0" stroke-linejoin="round" stroke-linecap="butt" d="m103.2612 97.23408l9.291336 -9.291336l-37.133858 -18.48819z" fill-rule="evenodd"/></g></svg>